<mxfile host="app.diagrams.net" agent="Mozilla/5.0 (Windows NT 10.0; Win64; x64) AppleWebKit/537.36 (KHTML, like Gecko) Chrome/137.0.0.0 Safari/537.36 Edg/137.0.0.0" version="27.1.3">
  <diagram name="Page-1" id="ZA1dfiM9mFUeG2fdopH4">
    <mxGraphModel dx="2143" dy="713" grid="1" gridSize="10" guides="1" tooltips="1" connect="1" arrows="1" fold="1" page="1" pageScale="1" pageWidth="850" pageHeight="1100" math="0" shadow="0">
      <root>
        <mxCell id="0" />
        <mxCell id="1" parent="0" />
        <mxCell id="RSFwFOlHjmeAvn5lMMJh-32" value="" style="rounded=0;whiteSpace=wrap;html=1;fillColor=#f5f5f5;fontColor=#333333;strokeColor=#666666;" vertex="1" parent="1">
          <mxGeometry x="180" y="120" width="190" height="220" as="geometry" />
        </mxCell>
        <mxCell id="RSFwFOlHjmeAvn5lMMJh-28" style="edgeStyle=orthogonalEdgeStyle;rounded=0;orthogonalLoop=1;jettySize=auto;html=1;entryX=0;entryY=0.5;entryDx=0;entryDy=0;" edge="1" parent="1" source="RSFwFOlHjmeAvn5lMMJh-21" target="RSFwFOlHjmeAvn5lMMJh-23">
          <mxGeometry relative="1" as="geometry" />
        </mxCell>
        <mxCell id="RSFwFOlHjmeAvn5lMMJh-21" value="" style="rounded=0;whiteSpace=wrap;html=1;fillColor=#f5f5f5;fontColor=#333333;strokeColor=#666666;" vertex="1" parent="1">
          <mxGeometry x="520" y="70" width="220" height="280" as="geometry" />
        </mxCell>
        <mxCell id="RSFwFOlHjmeAvn5lMMJh-33" style="edgeStyle=orthogonalEdgeStyle;rounded=0;orthogonalLoop=1;jettySize=auto;html=1;entryX=0.5;entryY=0;entryDx=0;entryDy=0;" edge="1" parent="1" source="RSFwFOlHjmeAvn5lMMJh-3" target="RSFwFOlHjmeAvn5lMMJh-31">
          <mxGeometry relative="1" as="geometry" />
        </mxCell>
        <mxCell id="RSFwFOlHjmeAvn5lMMJh-3" value="Generate Compact Nodes" style="rounded=1;whiteSpace=wrap;html=1;fillColor=#f8cecc;strokeColor=#b85450;" vertex="1" parent="1">
          <mxGeometry x="200" y="150" width="140" height="60" as="geometry" />
        </mxCell>
        <mxCell id="RSFwFOlHjmeAvn5lMMJh-50" style="edgeStyle=orthogonalEdgeStyle;rounded=0;orthogonalLoop=1;jettySize=auto;html=1;entryX=0.5;entryY=0;entryDx=0;entryDy=0;" edge="1" parent="1" source="RSFwFOlHjmeAvn5lMMJh-5" target="RSFwFOlHjmeAvn5lMMJh-20">
          <mxGeometry relative="1" as="geometry" />
        </mxCell>
        <mxCell id="RSFwFOlHjmeAvn5lMMJh-5" value="Generate Prompt Refine&lt;br&gt;(from Compact Summary + Current Answer)" style="rounded=1;whiteSpace=wrap;html=1;fillColor=#e1d5e7;strokeColor=#9673a6;" vertex="1" parent="1">
          <mxGeometry x="560" y="110" width="140" height="60" as="geometry" />
        </mxCell>
        <mxCell id="RSFwFOlHjmeAvn5lMMJh-6" value="Update&amp;nbsp;&lt;div&gt;&lt;span style=&quot;background-color: transparent; color: light-dark(rgb(0, 0, 0), rgb(255, 255, 255));&quot;&gt;Compact Summary&lt;/span&gt;&lt;/div&gt;" style="rounded=1;whiteSpace=wrap;html=1;fillColor=#e1d5e7;strokeColor=#9673a6;" vertex="1" parent="1">
          <mxGeometry x="560" y="270" width="140" height="60" as="geometry" />
        </mxCell>
        <mxCell id="RSFwFOlHjmeAvn5lMMJh-7" value="Input" style="text;html=1;align=center;verticalAlign=middle;resizable=0;points=[];autosize=1;strokeColor=none;fillColor=none;" vertex="1" parent="1">
          <mxGeometry x="-10" y="270" width="50" height="30" as="geometry" />
        </mxCell>
        <mxCell id="RSFwFOlHjmeAvn5lMMJh-14" value="" style="endArrow=classic;html=1;rounded=0;entryX=0.5;entryY=0;entryDx=0;entryDy=0;" edge="1" parent="1" target="RSFwFOlHjmeAvn5lMMJh-5">
          <mxGeometry width="50" height="50" relative="1" as="geometry">
            <mxPoint x="700" y="150" as="sourcePoint" />
            <mxPoint x="660" y="110" as="targetPoint" />
            <Array as="points">
              <mxPoint x="730" y="150" />
              <mxPoint x="730" y="90" />
              <mxPoint x="700" y="90" />
              <mxPoint x="660" y="90" />
              <mxPoint x="630" y="90" />
              <mxPoint x="630" y="100" />
            </Array>
          </mxGeometry>
        </mxCell>
        <mxCell id="RSFwFOlHjmeAvn5lMMJh-16" value="Is Helpful? - No" style="edgeLabel;html=1;align=center;verticalAlign=middle;resizable=0;points=[];" vertex="1" connectable="0" parent="RSFwFOlHjmeAvn5lMMJh-14">
          <mxGeometry x="-0.4545" relative="1" as="geometry">
            <mxPoint x="10" as="offset" />
          </mxGeometry>
        </mxCell>
        <mxCell id="RSFwFOlHjmeAvn5lMMJh-17" value="Next to new node" style="edgeLabel;html=1;align=center;verticalAlign=middle;resizable=0;points=[];" vertex="1" connectable="0" parent="RSFwFOlHjmeAvn5lMMJh-14">
          <mxGeometry x="0.4009" relative="1" as="geometry">
            <mxPoint x="7" as="offset" />
          </mxGeometry>
        </mxCell>
        <mxCell id="RSFwFOlHjmeAvn5lMMJh-51" style="edgeStyle=orthogonalEdgeStyle;rounded=0;orthogonalLoop=1;jettySize=auto;html=1;" edge="1" parent="1" source="RSFwFOlHjmeAvn5lMMJh-20" target="RSFwFOlHjmeAvn5lMMJh-6">
          <mxGeometry relative="1" as="geometry" />
        </mxCell>
        <mxCell id="RSFwFOlHjmeAvn5lMMJh-20" value="Repack node&lt;br&gt;(Restructuring chunks to fit model input limits)" style="rounded=1;whiteSpace=wrap;html=1;fillColor=#e1d5e7;strokeColor=#9673a6;" vertex="1" parent="1">
          <mxGeometry x="560" y="190" width="140" height="60" as="geometry" />
        </mxCell>
        <mxCell id="RSFwFOlHjmeAvn5lMMJh-23" value="Final Output" style="rounded=1;whiteSpace=wrap;html=1;fillColor=#d5e8d4;strokeColor=#82b366;" vertex="1" parent="1">
          <mxGeometry x="800" y="180" width="120" height="60" as="geometry" />
        </mxCell>
        <mxCell id="RSFwFOlHjmeAvn5lMMJh-29" value="Refine Step" style="text;html=1;align=center;verticalAlign=middle;resizable=0;points=[];autosize=1;strokeColor=none;fillColor=none;" vertex="1" parent="1">
          <mxGeometry x="585" y="350" width="90" height="30" as="geometry" />
        </mxCell>
        <mxCell id="RSFwFOlHjmeAvn5lMMJh-30" value="Compact Step" style="text;html=1;align=center;verticalAlign=middle;resizable=0;points=[];autosize=1;strokeColor=none;fillColor=none;" vertex="1" parent="1">
          <mxGeometry x="220" y="340" width="100" height="30" as="geometry" />
        </mxCell>
        <mxCell id="RSFwFOlHjmeAvn5lMMJh-31" value="Repack node&lt;br&gt;(Restructuring chunks to fit model input limits)" style="rounded=1;whiteSpace=wrap;html=1;fillColor=#f8cecc;strokeColor=#b85450;" vertex="1" parent="1">
          <mxGeometry x="200" y="250" width="140" height="60" as="geometry" />
        </mxCell>
        <mxCell id="RSFwFOlHjmeAvn5lMMJh-37" value="Compact Summary" style="rounded=1;whiteSpace=wrap;html=1;fillColor=#ffe6cc;strokeColor=#d79b00;" vertex="1" parent="1">
          <mxGeometry x="400" y="200" width="100" height="50" as="geometry" />
        </mxCell>
        <mxCell id="RSFwFOlHjmeAvn5lMMJh-39" style="edgeStyle=orthogonalEdgeStyle;rounded=0;orthogonalLoop=1;jettySize=auto;html=1;entryX=-0.018;entryY=0.622;entryDx=0;entryDy=0;entryPerimeter=0;" edge="1" parent="1" source="RSFwFOlHjmeAvn5lMMJh-32" target="RSFwFOlHjmeAvn5lMMJh-37">
          <mxGeometry relative="1" as="geometry" />
        </mxCell>
        <mxCell id="RSFwFOlHjmeAvn5lMMJh-41" style="edgeStyle=orthogonalEdgeStyle;rounded=0;orthogonalLoop=1;jettySize=auto;html=1;entryX=0;entryY=0.554;entryDx=0;entryDy=0;entryPerimeter=0;" edge="1" parent="1" source="RSFwFOlHjmeAvn5lMMJh-37" target="RSFwFOlHjmeAvn5lMMJh-21">
          <mxGeometry relative="1" as="geometry" />
        </mxCell>
        <mxCell id="RSFwFOlHjmeAvn5lMMJh-43" value="" style="rounded=1;whiteSpace=wrap;html=1;fillColor=#d5e8d4;strokeColor=#82b366;" vertex="1" parent="1">
          <mxGeometry x="-40" y="190" width="90" height="50" as="geometry" />
        </mxCell>
        <mxCell id="RSFwFOlHjmeAvn5lMMJh-48" value="" style="rounded=1;whiteSpace=wrap;html=1;fillColor=#d5e8d4;strokeColor=#82b366;" vertex="1" parent="1">
          <mxGeometry x="-30" y="205" width="90" height="50" as="geometry" />
        </mxCell>
        <mxCell id="RSFwFOlHjmeAvn5lMMJh-47" value="Constructed Node" style="rounded=1;whiteSpace=wrap;html=1;fillColor=#d5e8d4;strokeColor=#82b366;" vertex="1" parent="1">
          <mxGeometry x="-20" y="220" width="90" height="50" as="geometry" />
        </mxCell>
        <mxCell id="RSFwFOlHjmeAvn5lMMJh-49" style="edgeStyle=orthogonalEdgeStyle;rounded=0;orthogonalLoop=1;jettySize=auto;html=1;entryX=0.004;entryY=0.564;entryDx=0;entryDy=0;entryPerimeter=0;" edge="1" parent="1" source="RSFwFOlHjmeAvn5lMMJh-47" target="RSFwFOlHjmeAvn5lMMJh-32">
          <mxGeometry relative="1" as="geometry" />
        </mxCell>
      </root>
    </mxGraphModel>
  </diagram>
</mxfile>
